%
M48
M72
T02C0.0157
T06C0.0315
T08C0.0394
T32C0.1299
%
T02
X3151Y4901
X3151Y5401
X3151Y5901
X5901Y5401
X6651Y4901
X6651Y4401
X6651Y3901
X6651Y3401
X5901Y2901
X6651Y5901
X7401Y6401
X8151Y6151
X6401Y6901
X6401Y7401
X6401Y7901
X6401Y8401
X6151Y10151
X6651Y10151
X7151Y10151
X7651Y10151
X8151Y10151
X8651Y10151
X9151Y10151
X9651Y10151
X12151Y10151
X12651Y10151
X13151Y10151
X13651Y10151
X13651Y9401
X14401Y9901
X14901Y9901
X15401Y9901
X13901Y8401
X13901Y7901
X13901Y7401
X13901Y6901
X13901Y6401
X13901Y5901
X13901Y5401
X13901Y4901
X13901Y4401
X13901Y3901
X13901Y3401
X17651Y3401
X17651Y2401
X19901Y1651
X20401Y1651
X20901Y1651
X21151Y2401
X21151Y2901
X21151Y3401
X19901Y7401
X19901Y7901
X17401Y7651
X16901Y7651
X16401Y7651
X13651Y11651
X13651Y12151
X13651Y12651
X13651Y13151
X15151Y13651
X16151Y13651
X16151Y15401
X17651Y15901
X17651Y16401
X17651Y16901
X17651Y17401
X17651Y17901
X17651Y18401
X17651Y18901
X16651Y19651
X15151Y18901
X14651Y18901
X14151Y18901
X14901Y19901
X14401Y21401
X14401Y22401
X10151Y18151
X9651Y18151
X7651Y19901
X7651Y20401
X7651Y20901
X6776Y18026
X7151Y16651
X7151Y16151
X9401Y14401
X9401Y13901
X9401Y13401
X10401Y12651
X11776Y14776
X11401Y15151
X11026Y15526
X13151Y15401
X19901Y19651
X20401Y19651
X20901Y19651
X21151Y14401
X21151Y13651
X4151Y17901
X4151Y18401
X4151Y18901
X2901Y9901
X3151Y9526
X3401Y9151
T06
X2151Y11151
X2151Y20151
T08
X10151Y20151
X11151Y20151
X12151Y20151
X23151Y19151
X23151Y18151
X23151Y17151
X23151Y16151
X23151Y15151
X23151Y14151
X23151Y13151
X24151Y13151
X24151Y14151
X24151Y15151
X24151Y16151
X24151Y17151
X24151Y18151
X24151Y19151
X24151Y12151
X24151Y11151
X24151Y10151
X24151Y9151
X24151Y8151
X24151Y7151
X24151Y6151
X24151Y5151
X23151Y5151
X23151Y6151
X23151Y7151
X23151Y8151
X23151Y9151
X23151Y10151
X23151Y11151
X23151Y12151
T32
X1651Y1651
X1651Y22651
X24151Y22651
X24151Y1651
M30
