G75*
G70*
%OFA0B0*%
%FSLAX24Y24*%
%IPPOS*%
%LPD*%
%AMOC8*
5,1,8,0,0,1.08239X$1,22.5*
%
%ADD10C,0.1360*%
%ADD11C,0.0158*%
%ADD12C,0.0138*%
%ADD13C,0.0340*%
%ADD14C,0.0237*%
%ADD15R,0.0720X0.0720*%
%ADD16C,0.0720*%
D10*
X001651Y001651D03*
X001651Y022651D03*
X024151Y022651D03*
X024151Y001651D03*
D11*
X020856Y002322D02*
X020856Y002480D01*
X020856Y002322D02*
X020068Y002322D01*
X020068Y002480D01*
X020856Y002480D01*
X020856Y002479D02*
X020068Y002479D01*
X020856Y002822D02*
X020856Y002980D01*
X020856Y002822D02*
X020068Y002822D01*
X020068Y002980D01*
X020856Y002980D01*
X020856Y002979D02*
X020068Y002979D01*
X020856Y003322D02*
X020856Y003480D01*
X020856Y003322D02*
X020068Y003322D01*
X020068Y003480D01*
X020856Y003480D01*
X020856Y003479D02*
X020068Y003479D01*
X020856Y003822D02*
X020856Y003980D01*
X020856Y003822D02*
X020068Y003822D01*
X020068Y003980D01*
X020856Y003980D01*
X020856Y003979D02*
X020068Y003979D01*
X020856Y004322D02*
X020856Y004480D01*
X020856Y004322D02*
X020068Y004322D01*
X020068Y004480D01*
X020856Y004480D01*
X020856Y004479D02*
X020068Y004479D01*
X020856Y004822D02*
X020856Y004980D01*
X020856Y004822D02*
X020068Y004822D01*
X020068Y004980D01*
X020856Y004980D01*
X020856Y004979D02*
X020068Y004979D01*
X020856Y005322D02*
X020856Y005480D01*
X020856Y005322D02*
X020068Y005322D01*
X020068Y005480D01*
X020856Y005480D01*
X020856Y005479D02*
X020068Y005479D01*
X020856Y005822D02*
X020856Y005980D01*
X020856Y005822D02*
X020068Y005822D01*
X020068Y005980D01*
X020856Y005980D01*
X020856Y005979D02*
X020068Y005979D01*
X020856Y006322D02*
X020856Y006480D01*
X020856Y006322D02*
X020068Y006322D01*
X020068Y006480D01*
X020856Y006480D01*
X020856Y006479D02*
X020068Y006479D01*
X020856Y006822D02*
X020856Y006980D01*
X020856Y006822D02*
X020068Y006822D01*
X020068Y006980D01*
X020856Y006980D01*
X020856Y006979D02*
X020068Y006979D01*
X020068Y008322D02*
X020068Y008480D01*
X020856Y008480D01*
X020856Y008322D01*
X020068Y008322D01*
X020068Y008479D02*
X020856Y008479D01*
X020068Y008822D02*
X020068Y008980D01*
X020856Y008980D01*
X020856Y008822D01*
X020068Y008822D01*
X020068Y008979D02*
X020856Y008979D01*
X020068Y009322D02*
X020068Y009480D01*
X020856Y009480D01*
X020856Y009322D01*
X020068Y009322D01*
X020068Y009479D02*
X020856Y009479D01*
X020068Y009822D02*
X020068Y009980D01*
X020856Y009980D01*
X020856Y009822D01*
X020068Y009822D01*
X020068Y009979D02*
X020856Y009979D01*
X020068Y010322D02*
X020068Y010480D01*
X020856Y010480D01*
X020856Y010322D01*
X020068Y010322D01*
X020068Y010479D02*
X020856Y010479D01*
X020068Y010822D02*
X020068Y010980D01*
X020856Y010980D01*
X020856Y010822D01*
X020068Y010822D01*
X020068Y010979D02*
X020856Y010979D01*
X020068Y011322D02*
X020068Y011480D01*
X020856Y011480D01*
X020856Y011322D01*
X020068Y011322D01*
X020068Y011479D02*
X020856Y011479D01*
X020068Y011822D02*
X020068Y011980D01*
X020856Y011980D01*
X020856Y011822D01*
X020068Y011822D01*
X020068Y011979D02*
X020856Y011979D01*
X020068Y012322D02*
X020068Y012480D01*
X020856Y012480D01*
X020856Y012322D01*
X020068Y012322D01*
X020068Y012479D02*
X020856Y012479D01*
X020068Y012822D02*
X020068Y012980D01*
X020856Y012980D01*
X020856Y012822D01*
X020068Y012822D01*
X020068Y012979D02*
X020856Y012979D01*
X020856Y014322D02*
X020856Y014480D01*
X020856Y014322D02*
X020068Y014322D01*
X020068Y014480D01*
X020856Y014480D01*
X020856Y014479D02*
X020068Y014479D01*
X020856Y014822D02*
X020856Y014980D01*
X020856Y014822D02*
X020068Y014822D01*
X020068Y014980D01*
X020856Y014980D01*
X020856Y014979D02*
X020068Y014979D01*
X020856Y015322D02*
X020856Y015480D01*
X020856Y015322D02*
X020068Y015322D01*
X020068Y015480D01*
X020856Y015480D01*
X020856Y015479D02*
X020068Y015479D01*
X020856Y015822D02*
X020856Y015980D01*
X020856Y015822D02*
X020068Y015822D01*
X020068Y015980D01*
X020856Y015980D01*
X020856Y015979D02*
X020068Y015979D01*
X020856Y016322D02*
X020856Y016480D01*
X020856Y016322D02*
X020068Y016322D01*
X020068Y016480D01*
X020856Y016480D01*
X020856Y016479D02*
X020068Y016479D01*
X020856Y016822D02*
X020856Y016980D01*
X020856Y016822D02*
X020068Y016822D01*
X020068Y016980D01*
X020856Y016980D01*
X020856Y016979D02*
X020068Y016979D01*
X020856Y017322D02*
X020856Y017480D01*
X020856Y017322D02*
X020068Y017322D01*
X020068Y017480D01*
X020856Y017480D01*
X020856Y017479D02*
X020068Y017479D01*
X020856Y017822D02*
X020856Y017980D01*
X020856Y017822D02*
X020068Y017822D01*
X020068Y017980D01*
X020856Y017980D01*
X020856Y017979D02*
X020068Y017979D01*
X020856Y018322D02*
X020856Y018480D01*
X020856Y018322D02*
X020068Y018322D01*
X020068Y018480D01*
X020856Y018480D01*
X020856Y018479D02*
X020068Y018479D01*
X020856Y018822D02*
X020856Y018980D01*
X020856Y018822D02*
X020068Y018822D01*
X020068Y018980D01*
X020856Y018980D01*
X020856Y018979D02*
X020068Y018979D01*
X017234Y018980D02*
X017234Y018822D01*
X016446Y018822D01*
X016446Y018980D01*
X017234Y018980D01*
X017234Y018979D02*
X016446Y018979D01*
X017234Y018480D02*
X017234Y018322D01*
X016446Y018322D01*
X016446Y018480D01*
X017234Y018480D01*
X017234Y018479D02*
X016446Y018479D01*
X017234Y017980D02*
X017234Y017822D01*
X016446Y017822D01*
X016446Y017980D01*
X017234Y017980D01*
X017234Y017979D02*
X016446Y017979D01*
X017234Y017480D02*
X017234Y017322D01*
X016446Y017322D01*
X016446Y017480D01*
X017234Y017480D01*
X017234Y017479D02*
X016446Y017479D01*
X017234Y016980D02*
X017234Y016822D01*
X016446Y016822D01*
X016446Y016980D01*
X017234Y016980D01*
X017234Y016979D02*
X016446Y016979D01*
X017234Y016480D02*
X017234Y016322D01*
X016446Y016322D01*
X016446Y016480D01*
X017234Y016480D01*
X017234Y016479D02*
X016446Y016479D01*
X017234Y015980D02*
X017234Y015822D01*
X016446Y015822D01*
X016446Y015980D01*
X017234Y015980D01*
X017234Y015979D02*
X016446Y015979D01*
X017234Y015480D02*
X017234Y015322D01*
X016446Y015322D01*
X016446Y015480D01*
X017234Y015480D01*
X017234Y015479D02*
X016446Y015479D01*
X017234Y014980D02*
X017234Y014822D01*
X016446Y014822D01*
X016446Y014980D01*
X017234Y014980D01*
X017234Y014979D02*
X016446Y014979D01*
X017234Y014480D02*
X017234Y014322D01*
X016446Y014322D01*
X016446Y014480D01*
X017234Y014480D01*
X017234Y014479D02*
X016446Y014479D01*
X016446Y012980D02*
X016446Y012822D01*
X016446Y012980D02*
X017234Y012980D01*
X017234Y012822D01*
X016446Y012822D01*
X016446Y012979D02*
X017234Y012979D01*
X016446Y012480D02*
X016446Y012322D01*
X016446Y012480D02*
X017234Y012480D01*
X017234Y012322D01*
X016446Y012322D01*
X016446Y012479D02*
X017234Y012479D01*
X016446Y011980D02*
X016446Y011822D01*
X016446Y011980D02*
X017234Y011980D01*
X017234Y011822D01*
X016446Y011822D01*
X016446Y011979D02*
X017234Y011979D01*
X016446Y011480D02*
X016446Y011322D01*
X016446Y011480D02*
X017234Y011480D01*
X017234Y011322D01*
X016446Y011322D01*
X016446Y011479D02*
X017234Y011479D01*
X016446Y010980D02*
X016446Y010822D01*
X016446Y010980D02*
X017234Y010980D01*
X017234Y010822D01*
X016446Y010822D01*
X016446Y010979D02*
X017234Y010979D01*
X016446Y010480D02*
X016446Y010322D01*
X016446Y010480D02*
X017234Y010480D01*
X017234Y010322D01*
X016446Y010322D01*
X016446Y010479D02*
X017234Y010479D01*
X016446Y009980D02*
X016446Y009822D01*
X016446Y009980D02*
X017234Y009980D01*
X017234Y009822D01*
X016446Y009822D01*
X016446Y009979D02*
X017234Y009979D01*
X016446Y009480D02*
X016446Y009322D01*
X016446Y009480D02*
X017234Y009480D01*
X017234Y009322D01*
X016446Y009322D01*
X016446Y009479D02*
X017234Y009479D01*
X016446Y008980D02*
X016446Y008822D01*
X016446Y008980D02*
X017234Y008980D01*
X017234Y008822D01*
X016446Y008822D01*
X016446Y008979D02*
X017234Y008979D01*
X016446Y008480D02*
X016446Y008322D01*
X016446Y008480D02*
X017234Y008480D01*
X017234Y008322D01*
X016446Y008322D01*
X016446Y008479D02*
X017234Y008479D01*
X017234Y006980D02*
X017234Y006822D01*
X016446Y006822D01*
X016446Y006980D01*
X017234Y006980D01*
X017234Y006979D02*
X016446Y006979D01*
X017234Y006480D02*
X017234Y006322D01*
X016446Y006322D01*
X016446Y006480D01*
X017234Y006480D01*
X017234Y006479D02*
X016446Y006479D01*
X017234Y005980D02*
X017234Y005822D01*
X016446Y005822D01*
X016446Y005980D01*
X017234Y005980D01*
X017234Y005979D02*
X016446Y005979D01*
X017234Y005480D02*
X017234Y005322D01*
X016446Y005322D01*
X016446Y005480D01*
X017234Y005480D01*
X017234Y005479D02*
X016446Y005479D01*
X017234Y004980D02*
X017234Y004822D01*
X016446Y004822D01*
X016446Y004980D01*
X017234Y004980D01*
X017234Y004979D02*
X016446Y004979D01*
X017234Y004480D02*
X017234Y004322D01*
X016446Y004322D01*
X016446Y004480D01*
X017234Y004480D01*
X017234Y004479D02*
X016446Y004479D01*
X017234Y003980D02*
X017234Y003822D01*
X016446Y003822D01*
X016446Y003980D01*
X017234Y003980D01*
X017234Y003979D02*
X016446Y003979D01*
X017234Y003480D02*
X017234Y003322D01*
X016446Y003322D01*
X016446Y003480D01*
X017234Y003480D01*
X017234Y003479D02*
X016446Y003479D01*
X017234Y002980D02*
X017234Y002822D01*
X016446Y002822D01*
X016446Y002980D01*
X017234Y002980D01*
X017234Y002979D02*
X016446Y002979D01*
X017234Y002480D02*
X017234Y002322D01*
X016446Y002322D01*
X016446Y002480D01*
X017234Y002480D01*
X017234Y002479D02*
X016446Y002479D01*
X015211Y002480D02*
X015211Y002322D01*
X014423Y002322D01*
X014423Y002480D01*
X015211Y002480D01*
X015211Y002479D02*
X014423Y002479D01*
X015211Y002822D02*
X015211Y002980D01*
X015211Y002822D02*
X014423Y002822D01*
X014423Y002980D01*
X015211Y002980D01*
X015211Y002979D02*
X014423Y002979D01*
X015211Y003322D02*
X015211Y003480D01*
X015211Y003322D02*
X014423Y003322D01*
X014423Y003480D01*
X015211Y003480D01*
X015211Y003479D02*
X014423Y003479D01*
X015211Y003822D02*
X015211Y003980D01*
X015211Y003822D02*
X014423Y003822D01*
X014423Y003980D01*
X015211Y003980D01*
X015211Y003979D02*
X014423Y003979D01*
X015211Y004322D02*
X015211Y004480D01*
X015211Y004322D02*
X014423Y004322D01*
X014423Y004480D01*
X015211Y004480D01*
X015211Y004479D02*
X014423Y004479D01*
X015211Y004822D02*
X015211Y004980D01*
X015211Y004822D02*
X014423Y004822D01*
X014423Y004980D01*
X015211Y004980D01*
X015211Y004979D02*
X014423Y004979D01*
X015211Y005322D02*
X015211Y005480D01*
X015211Y005322D02*
X014423Y005322D01*
X014423Y005480D01*
X015211Y005480D01*
X015211Y005479D02*
X014423Y005479D01*
X015211Y005822D02*
X015211Y005980D01*
X015211Y005822D02*
X014423Y005822D01*
X014423Y005980D01*
X015211Y005980D01*
X015211Y005979D02*
X014423Y005979D01*
X015211Y006322D02*
X015211Y006480D01*
X015211Y006322D02*
X014423Y006322D01*
X014423Y006480D01*
X015211Y006480D01*
X015211Y006479D02*
X014423Y006479D01*
X015211Y006822D02*
X015211Y006980D01*
X015211Y006822D02*
X014423Y006822D01*
X014423Y006980D01*
X015211Y006980D01*
X015211Y006979D02*
X014423Y006979D01*
X015211Y007322D02*
X015211Y007480D01*
X015211Y007322D02*
X014423Y007322D01*
X014423Y007480D01*
X015211Y007480D01*
X015211Y007479D02*
X014423Y007479D01*
X015211Y007822D02*
X015211Y007980D01*
X015211Y007822D02*
X014423Y007822D01*
X014423Y007980D01*
X015211Y007980D01*
X015211Y007979D02*
X014423Y007979D01*
X015211Y008322D02*
X015211Y008480D01*
X015211Y008322D02*
X014423Y008322D01*
X014423Y008480D01*
X015211Y008480D01*
X015211Y008479D02*
X014423Y008479D01*
X015211Y008822D02*
X015211Y008980D01*
X015211Y008822D02*
X014423Y008822D01*
X014423Y008980D01*
X015211Y008980D01*
X015211Y008979D02*
X014423Y008979D01*
X013572Y010568D02*
X013572Y011356D01*
X013730Y011356D01*
X013730Y010568D01*
X013572Y010568D01*
X013572Y010725D02*
X013730Y010725D01*
X013730Y010882D02*
X013572Y010882D01*
X013572Y011039D02*
X013730Y011039D01*
X013730Y011196D02*
X013572Y011196D01*
X013572Y011353D02*
X013730Y011353D01*
X013946Y011572D02*
X013946Y011730D01*
X014734Y011730D01*
X014734Y011572D01*
X013946Y011572D01*
X013946Y011729D02*
X014734Y011729D01*
X013946Y012072D02*
X013946Y012230D01*
X014734Y012230D01*
X014734Y012072D01*
X013946Y012072D01*
X013946Y012229D02*
X014734Y012229D01*
X013946Y012572D02*
X013946Y012730D01*
X014734Y012730D01*
X014734Y012572D01*
X013946Y012572D01*
X013946Y012729D02*
X014734Y012729D01*
X013946Y013072D02*
X013946Y013230D01*
X014734Y013230D01*
X014734Y013072D01*
X013946Y013072D01*
X013946Y013229D02*
X014734Y013229D01*
X013946Y013572D02*
X013946Y013730D01*
X014734Y013730D01*
X014734Y013572D01*
X013946Y013572D01*
X013946Y013729D02*
X014734Y013729D01*
X013946Y014072D02*
X013946Y014230D01*
X014734Y014230D01*
X014734Y014072D01*
X013946Y014072D01*
X013946Y014229D02*
X014734Y014229D01*
X013946Y014572D02*
X013946Y014730D01*
X014734Y014730D01*
X014734Y014572D01*
X013946Y014572D01*
X013946Y014729D02*
X014734Y014729D01*
X013946Y015072D02*
X013946Y015230D01*
X014734Y015230D01*
X014734Y015072D01*
X013946Y015072D01*
X013946Y015229D02*
X014734Y015229D01*
X013946Y015572D02*
X013946Y015730D01*
X014734Y015730D01*
X014734Y015572D01*
X013946Y015572D01*
X013946Y015729D02*
X014734Y015729D01*
X013946Y016072D02*
X013946Y016230D01*
X014734Y016230D01*
X014734Y016072D01*
X013946Y016072D01*
X013946Y016229D02*
X014734Y016229D01*
X013946Y016572D02*
X013946Y016730D01*
X014734Y016730D01*
X014734Y016572D01*
X013946Y016572D01*
X013946Y016729D02*
X014734Y016729D01*
X013572Y016946D02*
X013572Y017734D01*
X013730Y017734D01*
X013730Y016946D01*
X013572Y016946D01*
X013572Y017103D02*
X013730Y017103D01*
X013730Y017260D02*
X013572Y017260D01*
X013572Y017417D02*
X013730Y017417D01*
X013730Y017574D02*
X013572Y017574D01*
X013572Y017731D02*
X013730Y017731D01*
X013072Y017734D02*
X013072Y016946D01*
X013072Y017734D02*
X013230Y017734D01*
X013230Y016946D01*
X013072Y016946D01*
X013072Y017103D02*
X013230Y017103D01*
X013230Y017260D02*
X013072Y017260D01*
X013072Y017417D02*
X013230Y017417D01*
X013230Y017574D02*
X013072Y017574D01*
X013072Y017731D02*
X013230Y017731D01*
X012572Y017734D02*
X012572Y016946D01*
X012572Y017734D02*
X012730Y017734D01*
X012730Y016946D01*
X012572Y016946D01*
X012572Y017103D02*
X012730Y017103D01*
X012730Y017260D02*
X012572Y017260D01*
X012572Y017417D02*
X012730Y017417D01*
X012730Y017574D02*
X012572Y017574D01*
X012572Y017731D02*
X012730Y017731D01*
X012072Y017734D02*
X012072Y016946D01*
X012072Y017734D02*
X012230Y017734D01*
X012230Y016946D01*
X012072Y016946D01*
X012072Y017103D02*
X012230Y017103D01*
X012230Y017260D02*
X012072Y017260D01*
X012072Y017417D02*
X012230Y017417D01*
X012230Y017574D02*
X012072Y017574D01*
X012072Y017731D02*
X012230Y017731D01*
X011572Y017734D02*
X011572Y016946D01*
X011572Y017734D02*
X011730Y017734D01*
X011730Y016946D01*
X011572Y016946D01*
X011572Y017103D02*
X011730Y017103D01*
X011730Y017260D02*
X011572Y017260D01*
X011572Y017417D02*
X011730Y017417D01*
X011730Y017574D02*
X011572Y017574D01*
X011572Y017731D02*
X011730Y017731D01*
X011072Y017734D02*
X011072Y016946D01*
X011072Y017734D02*
X011230Y017734D01*
X011230Y016946D01*
X011072Y016946D01*
X011072Y017103D02*
X011230Y017103D01*
X011230Y017260D02*
X011072Y017260D01*
X011072Y017417D02*
X011230Y017417D01*
X011230Y017574D02*
X011072Y017574D01*
X011072Y017731D02*
X011230Y017731D01*
X010572Y017734D02*
X010572Y016946D01*
X010572Y017734D02*
X010730Y017734D01*
X010730Y016946D01*
X010572Y016946D01*
X010572Y017103D02*
X010730Y017103D01*
X010730Y017260D02*
X010572Y017260D01*
X010572Y017417D02*
X010730Y017417D01*
X010730Y017574D02*
X010572Y017574D01*
X010572Y017731D02*
X010730Y017731D01*
X010072Y017734D02*
X010072Y016946D01*
X010072Y017734D02*
X010230Y017734D01*
X010230Y016946D01*
X010072Y016946D01*
X010072Y017103D02*
X010230Y017103D01*
X010230Y017260D02*
X010072Y017260D01*
X010072Y017417D02*
X010230Y017417D01*
X010230Y017574D02*
X010072Y017574D01*
X010072Y017731D02*
X010230Y017731D01*
X009572Y017734D02*
X009572Y016946D01*
X009572Y017734D02*
X009730Y017734D01*
X009730Y016946D01*
X009572Y016946D01*
X009572Y017103D02*
X009730Y017103D01*
X009730Y017260D02*
X009572Y017260D01*
X009572Y017417D02*
X009730Y017417D01*
X009730Y017574D02*
X009572Y017574D01*
X009572Y017731D02*
X009730Y017731D01*
X009072Y017734D02*
X009072Y016946D01*
X009072Y017734D02*
X009230Y017734D01*
X009230Y016946D01*
X009072Y016946D01*
X009072Y017103D02*
X009230Y017103D01*
X009230Y017260D02*
X009072Y017260D01*
X009072Y017417D02*
X009230Y017417D01*
X009230Y017574D02*
X009072Y017574D01*
X009072Y017731D02*
X009230Y017731D01*
X008572Y017734D02*
X008572Y016946D01*
X008572Y017734D02*
X008730Y017734D01*
X008730Y016946D01*
X008572Y016946D01*
X008572Y017103D02*
X008730Y017103D01*
X008730Y017260D02*
X008572Y017260D01*
X008572Y017417D02*
X008730Y017417D01*
X008730Y017574D02*
X008572Y017574D01*
X008572Y017731D02*
X008730Y017731D01*
X007568Y016730D02*
X007568Y016572D01*
X007568Y016730D02*
X008356Y016730D01*
X008356Y016572D01*
X007568Y016572D01*
X007568Y016729D02*
X008356Y016729D01*
X007568Y016230D02*
X007568Y016072D01*
X007568Y016230D02*
X008356Y016230D01*
X008356Y016072D01*
X007568Y016072D01*
X007568Y016229D02*
X008356Y016229D01*
X007568Y015730D02*
X007568Y015572D01*
X007568Y015730D02*
X008356Y015730D01*
X008356Y015572D01*
X007568Y015572D01*
X007568Y015729D02*
X008356Y015729D01*
X007568Y015230D02*
X007568Y015072D01*
X007568Y015230D02*
X008356Y015230D01*
X008356Y015072D01*
X007568Y015072D01*
X007568Y015229D02*
X008356Y015229D01*
X007568Y014730D02*
X007568Y014572D01*
X007568Y014730D02*
X008356Y014730D01*
X008356Y014572D01*
X007568Y014572D01*
X007568Y014729D02*
X008356Y014729D01*
X007568Y014230D02*
X007568Y014072D01*
X007568Y014230D02*
X008356Y014230D01*
X008356Y014072D01*
X007568Y014072D01*
X007568Y014229D02*
X008356Y014229D01*
X007568Y013730D02*
X007568Y013572D01*
X007568Y013730D02*
X008356Y013730D01*
X008356Y013572D01*
X007568Y013572D01*
X007568Y013729D02*
X008356Y013729D01*
X007568Y013230D02*
X007568Y013072D01*
X007568Y013230D02*
X008356Y013230D01*
X008356Y013072D01*
X007568Y013072D01*
X007568Y013229D02*
X008356Y013229D01*
X007568Y012730D02*
X007568Y012572D01*
X007568Y012730D02*
X008356Y012730D01*
X008356Y012572D01*
X007568Y012572D01*
X007568Y012729D02*
X008356Y012729D01*
X007568Y012230D02*
X007568Y012072D01*
X007568Y012230D02*
X008356Y012230D01*
X008356Y012072D01*
X007568Y012072D01*
X007568Y012229D02*
X008356Y012229D01*
X007568Y011730D02*
X007568Y011572D01*
X007568Y011730D02*
X008356Y011730D01*
X008356Y011572D01*
X007568Y011572D01*
X007568Y011729D02*
X008356Y011729D01*
X008572Y011356D02*
X008572Y010568D01*
X008572Y011356D02*
X008730Y011356D01*
X008730Y010568D01*
X008572Y010568D01*
X008572Y010725D02*
X008730Y010725D01*
X008730Y010882D02*
X008572Y010882D01*
X008572Y011039D02*
X008730Y011039D01*
X008730Y011196D02*
X008572Y011196D01*
X008572Y011353D02*
X008730Y011353D01*
X009072Y011356D02*
X009072Y010568D01*
X009072Y011356D02*
X009230Y011356D01*
X009230Y010568D01*
X009072Y010568D01*
X009072Y010725D02*
X009230Y010725D01*
X009230Y010882D02*
X009072Y010882D01*
X009072Y011039D02*
X009230Y011039D01*
X009230Y011196D02*
X009072Y011196D01*
X009072Y011353D02*
X009230Y011353D01*
X009572Y011356D02*
X009572Y010568D01*
X009572Y011356D02*
X009730Y011356D01*
X009730Y010568D01*
X009572Y010568D01*
X009572Y010725D02*
X009730Y010725D01*
X009730Y010882D02*
X009572Y010882D01*
X009572Y011039D02*
X009730Y011039D01*
X009730Y011196D02*
X009572Y011196D01*
X009572Y011353D02*
X009730Y011353D01*
X010072Y011356D02*
X010072Y010568D01*
X010072Y011356D02*
X010230Y011356D01*
X010230Y010568D01*
X010072Y010568D01*
X010072Y010725D02*
X010230Y010725D01*
X010230Y010882D02*
X010072Y010882D01*
X010072Y011039D02*
X010230Y011039D01*
X010230Y011196D02*
X010072Y011196D01*
X010072Y011353D02*
X010230Y011353D01*
X010572Y011356D02*
X010572Y010568D01*
X010572Y011356D02*
X010730Y011356D01*
X010730Y010568D01*
X010572Y010568D01*
X010572Y010725D02*
X010730Y010725D01*
X010730Y010882D02*
X010572Y010882D01*
X010572Y011039D02*
X010730Y011039D01*
X010730Y011196D02*
X010572Y011196D01*
X010572Y011353D02*
X010730Y011353D01*
X011072Y011356D02*
X011072Y010568D01*
X011072Y011356D02*
X011230Y011356D01*
X011230Y010568D01*
X011072Y010568D01*
X011072Y010725D02*
X011230Y010725D01*
X011230Y010882D02*
X011072Y010882D01*
X011072Y011039D02*
X011230Y011039D01*
X011230Y011196D02*
X011072Y011196D01*
X011072Y011353D02*
X011230Y011353D01*
X011572Y011356D02*
X011572Y010568D01*
X011572Y011356D02*
X011730Y011356D01*
X011730Y010568D01*
X011572Y010568D01*
X011572Y010725D02*
X011730Y010725D01*
X011730Y010882D02*
X011572Y010882D01*
X011572Y011039D02*
X011730Y011039D01*
X011730Y011196D02*
X011572Y011196D01*
X011572Y011353D02*
X011730Y011353D01*
X012072Y011356D02*
X012072Y010568D01*
X012072Y011356D02*
X012230Y011356D01*
X012230Y010568D01*
X012072Y010568D01*
X012072Y010725D02*
X012230Y010725D01*
X012230Y010882D02*
X012072Y010882D01*
X012072Y011039D02*
X012230Y011039D01*
X012230Y011196D02*
X012072Y011196D01*
X012072Y011353D02*
X012230Y011353D01*
X012572Y011356D02*
X012572Y010568D01*
X012572Y011356D02*
X012730Y011356D01*
X012730Y010568D01*
X012572Y010568D01*
X012572Y010725D02*
X012730Y010725D01*
X012730Y010882D02*
X012572Y010882D01*
X012572Y011039D02*
X012730Y011039D01*
X012730Y011196D02*
X012572Y011196D01*
X012572Y011353D02*
X012730Y011353D01*
X013072Y011356D02*
X013072Y010568D01*
X013072Y011356D02*
X013230Y011356D01*
X013230Y010568D01*
X013072Y010568D01*
X013072Y010725D02*
X013230Y010725D01*
X013230Y010882D02*
X013072Y010882D01*
X013072Y011039D02*
X013230Y011039D01*
X013230Y011196D02*
X013072Y011196D01*
X013072Y011353D02*
X013230Y011353D01*
X010880Y008980D02*
X010880Y008822D01*
X010092Y008822D01*
X010092Y008980D01*
X010880Y008980D01*
X010880Y008979D02*
X010092Y008979D01*
X010880Y008480D02*
X010880Y008322D01*
X010092Y008322D01*
X010092Y008480D01*
X010880Y008480D01*
X010880Y008479D02*
X010092Y008479D01*
X010880Y007980D02*
X010880Y007822D01*
X010092Y007822D01*
X010092Y007980D01*
X010880Y007980D01*
X010880Y007979D02*
X010092Y007979D01*
X010880Y007480D02*
X010880Y007322D01*
X010092Y007322D01*
X010092Y007480D01*
X010880Y007480D01*
X010880Y007479D02*
X010092Y007479D01*
X010880Y006980D02*
X010880Y006822D01*
X010092Y006822D01*
X010092Y006980D01*
X010880Y006980D01*
X010880Y006979D02*
X010092Y006979D01*
X010880Y006480D02*
X010880Y006322D01*
X010092Y006322D01*
X010092Y006480D01*
X010880Y006480D01*
X010880Y006479D02*
X010092Y006479D01*
X010880Y005980D02*
X010880Y005822D01*
X010092Y005822D01*
X010092Y005980D01*
X010880Y005980D01*
X010880Y005979D02*
X010092Y005979D01*
X010880Y005480D02*
X010880Y005322D01*
X010092Y005322D01*
X010092Y005480D01*
X010880Y005480D01*
X010880Y005479D02*
X010092Y005479D01*
X010880Y004980D02*
X010880Y004822D01*
X010092Y004822D01*
X010092Y004980D01*
X010880Y004980D01*
X010880Y004979D02*
X010092Y004979D01*
X010880Y004480D02*
X010880Y004322D01*
X010092Y004322D01*
X010092Y004480D01*
X010880Y004480D01*
X010880Y004479D02*
X010092Y004479D01*
X010880Y003980D02*
X010880Y003822D01*
X010092Y003822D01*
X010092Y003980D01*
X010880Y003980D01*
X010880Y003979D02*
X010092Y003979D01*
X010880Y003480D02*
X010880Y003322D01*
X010092Y003322D01*
X010092Y003480D01*
X010880Y003480D01*
X010880Y003479D02*
X010092Y003479D01*
X010880Y002980D02*
X010880Y002822D01*
X010092Y002822D01*
X010092Y002980D01*
X010880Y002980D01*
X010880Y002979D02*
X010092Y002979D01*
X010880Y002480D02*
X010880Y002322D01*
X010092Y002322D01*
X010092Y002480D01*
X010880Y002480D01*
X010880Y002479D02*
X010092Y002479D01*
X009211Y002480D02*
X009211Y002322D01*
X008423Y002322D01*
X008423Y002480D01*
X009211Y002480D01*
X009211Y002479D02*
X008423Y002479D01*
X009211Y002822D02*
X009211Y002980D01*
X009211Y002822D02*
X008423Y002822D01*
X008423Y002980D01*
X009211Y002980D01*
X009211Y002979D02*
X008423Y002979D01*
X009211Y003322D02*
X009211Y003480D01*
X009211Y003322D02*
X008423Y003322D01*
X008423Y003480D01*
X009211Y003480D01*
X009211Y003479D02*
X008423Y003479D01*
X009211Y003822D02*
X009211Y003980D01*
X009211Y003822D02*
X008423Y003822D01*
X008423Y003980D01*
X009211Y003980D01*
X009211Y003979D02*
X008423Y003979D01*
X009211Y004322D02*
X009211Y004480D01*
X009211Y004322D02*
X008423Y004322D01*
X008423Y004480D01*
X009211Y004480D01*
X009211Y004479D02*
X008423Y004479D01*
X009211Y004822D02*
X009211Y004980D01*
X009211Y004822D02*
X008423Y004822D01*
X008423Y004980D01*
X009211Y004980D01*
X009211Y004979D02*
X008423Y004979D01*
X009211Y005322D02*
X009211Y005480D01*
X009211Y005322D02*
X008423Y005322D01*
X008423Y005480D01*
X009211Y005480D01*
X009211Y005479D02*
X008423Y005479D01*
X009211Y005822D02*
X009211Y005980D01*
X009211Y005822D02*
X008423Y005822D01*
X008423Y005980D01*
X009211Y005980D01*
X009211Y005979D02*
X008423Y005979D01*
X009211Y006322D02*
X009211Y006480D01*
X009211Y006322D02*
X008423Y006322D01*
X008423Y006480D01*
X009211Y006480D01*
X009211Y006479D02*
X008423Y006479D01*
X009211Y006822D02*
X009211Y006980D01*
X009211Y006822D02*
X008423Y006822D01*
X008423Y006980D01*
X009211Y006980D01*
X009211Y006979D02*
X008423Y006979D01*
X009211Y007322D02*
X009211Y007480D01*
X009211Y007322D02*
X008423Y007322D01*
X008423Y007480D01*
X009211Y007480D01*
X009211Y007479D02*
X008423Y007479D01*
X009211Y007822D02*
X009211Y007980D01*
X009211Y007822D02*
X008423Y007822D01*
X008423Y007980D01*
X009211Y007980D01*
X009211Y007979D02*
X008423Y007979D01*
X009211Y008322D02*
X009211Y008480D01*
X009211Y008322D02*
X008423Y008322D01*
X008423Y008480D01*
X009211Y008480D01*
X009211Y008479D02*
X008423Y008479D01*
X009211Y008822D02*
X009211Y008980D01*
X009211Y008822D02*
X008423Y008822D01*
X008423Y008980D01*
X009211Y008980D01*
X009211Y008979D02*
X008423Y008979D01*
X004880Y008980D02*
X004880Y008822D01*
X004092Y008822D01*
X004092Y008980D01*
X004880Y008980D01*
X004880Y008979D02*
X004092Y008979D01*
X004880Y008480D02*
X004880Y008322D01*
X004092Y008322D01*
X004092Y008480D01*
X004880Y008480D01*
X004880Y008479D02*
X004092Y008479D01*
X004880Y007980D02*
X004880Y007822D01*
X004092Y007822D01*
X004092Y007980D01*
X004880Y007980D01*
X004880Y007979D02*
X004092Y007979D01*
X004880Y007480D02*
X004880Y007322D01*
X004092Y007322D01*
X004092Y007480D01*
X004880Y007480D01*
X004880Y007479D02*
X004092Y007479D01*
X004880Y006980D02*
X004880Y006822D01*
X004092Y006822D01*
X004092Y006980D01*
X004880Y006980D01*
X004880Y006979D02*
X004092Y006979D01*
X004880Y006480D02*
X004880Y006322D01*
X004092Y006322D01*
X004092Y006480D01*
X004880Y006480D01*
X004880Y006479D02*
X004092Y006479D01*
X004880Y005980D02*
X004880Y005822D01*
X004092Y005822D01*
X004092Y005980D01*
X004880Y005980D01*
X004880Y005979D02*
X004092Y005979D01*
X004880Y005480D02*
X004880Y005322D01*
X004092Y005322D01*
X004092Y005480D01*
X004880Y005480D01*
X004880Y005479D02*
X004092Y005479D01*
X004880Y004980D02*
X004880Y004822D01*
X004092Y004822D01*
X004092Y004980D01*
X004880Y004980D01*
X004880Y004979D02*
X004092Y004979D01*
X004880Y004480D02*
X004880Y004322D01*
X004092Y004322D01*
X004092Y004480D01*
X004880Y004480D01*
X004880Y004479D02*
X004092Y004479D01*
X004880Y003980D02*
X004880Y003822D01*
X004092Y003822D01*
X004092Y003980D01*
X004880Y003980D01*
X004880Y003979D02*
X004092Y003979D01*
X004880Y003480D02*
X004880Y003322D01*
X004092Y003322D01*
X004092Y003480D01*
X004880Y003480D01*
X004880Y003479D02*
X004092Y003479D01*
X004880Y002980D02*
X004880Y002822D01*
X004092Y002822D01*
X004092Y002980D01*
X004880Y002980D01*
X004880Y002979D02*
X004092Y002979D01*
X004880Y002480D02*
X004880Y002322D01*
X004092Y002322D01*
X004092Y002480D01*
X004880Y002480D01*
X004880Y002479D02*
X004092Y002479D01*
X006234Y018822D02*
X006234Y018980D01*
X007022Y018980D01*
X007022Y018822D01*
X006234Y018822D01*
X006234Y018979D02*
X007022Y018979D01*
X006234Y019322D02*
X006234Y019480D01*
X007022Y019480D01*
X007022Y019322D01*
X006234Y019322D01*
X006234Y019479D02*
X007022Y019479D01*
X006234Y019822D02*
X006234Y019980D01*
X007022Y019980D01*
X007022Y019822D01*
X006234Y019822D01*
X006234Y019979D02*
X007022Y019979D01*
X006234Y020322D02*
X006234Y020480D01*
X007022Y020480D01*
X007022Y020322D01*
X006234Y020322D01*
X006234Y020479D02*
X007022Y020479D01*
X006234Y020822D02*
X006234Y020980D01*
X007022Y020980D01*
X007022Y020822D01*
X006234Y020822D01*
X006234Y020979D02*
X007022Y020979D01*
X006234Y021322D02*
X006234Y021480D01*
X007022Y021480D01*
X007022Y021322D01*
X006234Y021322D01*
X006234Y021479D02*
X007022Y021479D01*
X006234Y021822D02*
X006234Y021980D01*
X007022Y021980D01*
X007022Y021822D01*
X006234Y021822D01*
X006234Y021979D02*
X007022Y021979D01*
X006234Y022322D02*
X006234Y022480D01*
X007022Y022480D01*
X007022Y022322D01*
X006234Y022322D01*
X006234Y022479D02*
X007022Y022479D01*
X008281Y022480D02*
X008281Y022322D01*
X008281Y022480D02*
X009069Y022480D01*
X009069Y022322D01*
X008281Y022322D01*
X008281Y022479D02*
X009069Y022479D01*
X008281Y021980D02*
X008281Y021822D01*
X008281Y021980D02*
X009069Y021980D01*
X009069Y021822D01*
X008281Y021822D01*
X008281Y021979D02*
X009069Y021979D01*
X008281Y021480D02*
X008281Y021322D01*
X008281Y021480D02*
X009069Y021480D01*
X009069Y021322D01*
X008281Y021322D01*
X008281Y021479D02*
X009069Y021479D01*
X008281Y020980D02*
X008281Y020822D01*
X008281Y020980D02*
X009069Y020980D01*
X009069Y020822D01*
X008281Y020822D01*
X008281Y020979D02*
X009069Y020979D01*
X008281Y020480D02*
X008281Y020322D01*
X008281Y020480D02*
X009069Y020480D01*
X009069Y020322D01*
X008281Y020322D01*
X008281Y020479D02*
X009069Y020479D01*
X008281Y019980D02*
X008281Y019822D01*
X008281Y019980D02*
X009069Y019980D01*
X009069Y019822D01*
X008281Y019822D01*
X008281Y019979D02*
X009069Y019979D01*
X008281Y019480D02*
X008281Y019322D01*
X008281Y019480D02*
X009069Y019480D01*
X009069Y019322D01*
X008281Y019322D01*
X008281Y019479D02*
X009069Y019479D01*
X008281Y018980D02*
X008281Y018822D01*
X008281Y018980D02*
X009069Y018980D01*
X009069Y018822D01*
X008281Y018822D01*
X008281Y018979D02*
X009069Y018979D01*
X013234Y019322D02*
X013234Y019480D01*
X014022Y019480D01*
X014022Y019322D01*
X013234Y019322D01*
X013234Y019479D02*
X014022Y019479D01*
X013234Y019822D02*
X013234Y019980D01*
X014022Y019980D01*
X014022Y019822D01*
X013234Y019822D01*
X013234Y019979D02*
X014022Y019979D01*
X013234Y020322D02*
X013234Y020480D01*
X014022Y020480D01*
X014022Y020322D01*
X013234Y020322D01*
X013234Y020479D02*
X014022Y020479D01*
X013234Y020822D02*
X013234Y020980D01*
X014022Y020980D01*
X014022Y020822D01*
X013234Y020822D01*
X013234Y020979D02*
X014022Y020979D01*
X013234Y021322D02*
X013234Y021480D01*
X014022Y021480D01*
X014022Y021322D01*
X013234Y021322D01*
X013234Y021479D02*
X014022Y021479D01*
X013234Y021822D02*
X013234Y021980D01*
X014022Y021980D01*
X014022Y021822D01*
X013234Y021822D01*
X013234Y021979D02*
X014022Y021979D01*
X013234Y022322D02*
X013234Y022480D01*
X014022Y022480D01*
X014022Y022322D01*
X013234Y022322D01*
X013234Y022479D02*
X014022Y022479D01*
X015281Y022480D02*
X015281Y022322D01*
X015281Y022480D02*
X016069Y022480D01*
X016069Y022322D01*
X015281Y022322D01*
X015281Y022479D02*
X016069Y022479D01*
X015281Y021980D02*
X015281Y021822D01*
X015281Y021980D02*
X016069Y021980D01*
X016069Y021822D01*
X015281Y021822D01*
X015281Y021979D02*
X016069Y021979D01*
X015281Y021480D02*
X015281Y021322D01*
X015281Y021480D02*
X016069Y021480D01*
X016069Y021322D01*
X015281Y021322D01*
X015281Y021479D02*
X016069Y021479D01*
X015281Y020980D02*
X015281Y020822D01*
X015281Y020980D02*
X016069Y020980D01*
X016069Y020822D01*
X015281Y020822D01*
X015281Y020979D02*
X016069Y020979D01*
X015281Y020480D02*
X015281Y020322D01*
X015281Y020480D02*
X016069Y020480D01*
X016069Y020322D01*
X015281Y020322D01*
X015281Y020479D02*
X016069Y020479D01*
X015281Y019980D02*
X015281Y019822D01*
X015281Y019980D02*
X016069Y019980D01*
X016069Y019822D01*
X015281Y019822D01*
X015281Y019979D02*
X016069Y019979D01*
X015281Y019480D02*
X015281Y019322D01*
X015281Y019480D02*
X016069Y019480D01*
X016069Y019322D01*
X015281Y019322D01*
X015281Y019479D02*
X016069Y019479D01*
D12*
X002318Y009693D02*
X002318Y009555D01*
X002318Y009693D02*
X002516Y009693D01*
X002516Y009555D01*
X002318Y009555D01*
X002318Y009692D02*
X002516Y009692D01*
X002318Y009378D02*
X002318Y009240D01*
X002318Y009378D02*
X002516Y009378D01*
X002516Y009240D01*
X002318Y009240D01*
X002318Y009377D02*
X002516Y009377D01*
X002318Y009063D02*
X002318Y008925D01*
X002318Y009063D02*
X002516Y009063D01*
X002516Y008925D01*
X002318Y008925D01*
X002318Y009062D02*
X002516Y009062D01*
X002318Y008748D02*
X002318Y008610D01*
X002318Y008748D02*
X002516Y008748D01*
X002516Y008610D01*
X002318Y008610D01*
X002318Y008747D02*
X002516Y008747D01*
X002318Y008193D02*
X002318Y008055D01*
X002318Y008193D02*
X002516Y008193D01*
X002516Y008055D01*
X002318Y008055D01*
X002318Y008192D02*
X002516Y008192D01*
X002318Y007878D02*
X002318Y007740D01*
X002318Y007878D02*
X002516Y007878D01*
X002516Y007740D01*
X002318Y007740D01*
X002318Y007877D02*
X002516Y007877D01*
X002318Y007563D02*
X002318Y007425D01*
X002318Y007563D02*
X002516Y007563D01*
X002516Y007425D01*
X002318Y007425D01*
X002318Y007562D02*
X002516Y007562D01*
X002318Y007248D02*
X002318Y007110D01*
X002318Y007248D02*
X002516Y007248D01*
X002516Y007110D01*
X002318Y007110D01*
X002318Y007247D02*
X002516Y007247D01*
X001786Y007248D02*
X001786Y007110D01*
X001786Y007248D02*
X001984Y007248D01*
X001984Y007110D01*
X001786Y007110D01*
X001786Y007247D02*
X001984Y007247D01*
X001786Y007425D02*
X001786Y007563D01*
X001984Y007563D01*
X001984Y007425D01*
X001786Y007425D01*
X001786Y007562D02*
X001984Y007562D01*
X001786Y007740D02*
X001786Y007878D01*
X001984Y007878D01*
X001984Y007740D01*
X001786Y007740D01*
X001786Y007877D02*
X001984Y007877D01*
X001786Y008055D02*
X001786Y008193D01*
X001984Y008193D01*
X001984Y008055D01*
X001786Y008055D01*
X001786Y008192D02*
X001984Y008192D01*
X001786Y008610D02*
X001786Y008748D01*
X001984Y008748D01*
X001984Y008610D01*
X001786Y008610D01*
X001786Y008747D02*
X001984Y008747D01*
X001786Y008925D02*
X001786Y009063D01*
X001984Y009063D01*
X001984Y008925D01*
X001786Y008925D01*
X001786Y009062D02*
X001984Y009062D01*
X001786Y009240D02*
X001786Y009378D01*
X001984Y009378D01*
X001984Y009240D01*
X001786Y009240D01*
X001786Y009377D02*
X001984Y009377D01*
X001786Y009555D02*
X001786Y009693D01*
X001984Y009693D01*
X001984Y009555D01*
X001786Y009555D01*
X001786Y009692D02*
X001984Y009692D01*
D13*
X005321Y011481D02*
X005321Y013021D01*
X005321Y011481D02*
X004981Y011481D01*
X004981Y013021D01*
X005321Y013021D01*
X005321Y011820D02*
X004981Y011820D01*
X004981Y012159D02*
X005321Y012159D01*
X005321Y012498D02*
X004981Y012498D01*
X004981Y012837D02*
X005321Y012837D01*
X005321Y015281D02*
X005321Y016821D01*
X005321Y015281D02*
X004981Y015281D01*
X004981Y016821D01*
X005321Y016821D01*
X005321Y015620D02*
X004981Y015620D01*
X004981Y015959D02*
X005321Y015959D01*
X005321Y016298D02*
X004981Y016298D01*
X004981Y016637D02*
X005321Y016637D01*
D14*
X005368Y017158D02*
X005368Y017396D01*
X005368Y017158D02*
X004934Y017158D01*
X004934Y017396D01*
X005368Y017396D01*
X005368Y017394D02*
X004934Y017394D01*
X005368Y017906D02*
X005368Y018144D01*
X005368Y017906D02*
X004934Y017906D01*
X004934Y018144D01*
X005368Y018144D01*
X005368Y018142D02*
X004934Y018142D01*
X004934Y018658D02*
X004934Y018896D01*
X005368Y018896D01*
X005368Y018658D01*
X004934Y018658D01*
X004934Y018894D02*
X005368Y018894D01*
X004934Y019406D02*
X004934Y019644D01*
X005368Y019644D01*
X005368Y019406D01*
X004934Y019406D01*
X004934Y019642D02*
X005368Y019642D01*
X004934Y020158D02*
X004934Y020396D01*
X005368Y020396D01*
X005368Y020158D01*
X004934Y020158D01*
X004934Y020394D02*
X005368Y020394D01*
X004934Y020906D02*
X004934Y021144D01*
X005368Y021144D01*
X005368Y020906D01*
X004934Y020906D01*
X004934Y021142D02*
X005368Y021142D01*
X004934Y021658D02*
X004934Y021896D01*
X005368Y021896D01*
X005368Y021658D01*
X004934Y021658D01*
X004934Y021894D02*
X005368Y021894D01*
X004934Y022406D02*
X004934Y022644D01*
X005368Y022644D01*
X005368Y022406D01*
X004934Y022406D01*
X004934Y022642D02*
X005368Y022642D01*
X003934Y021144D02*
X003934Y020906D01*
X003934Y021144D02*
X004368Y021144D01*
X004368Y020906D01*
X003934Y020906D01*
X003934Y021142D02*
X004368Y021142D01*
X003934Y020396D02*
X003934Y020158D01*
X003934Y020396D02*
X004368Y020396D01*
X004368Y020158D01*
X003934Y020158D01*
X003934Y020394D02*
X004368Y020394D01*
X005934Y018144D02*
X005934Y017906D01*
X005934Y018144D02*
X006368Y018144D01*
X006368Y017906D01*
X005934Y017906D01*
X005934Y018142D02*
X006368Y018142D01*
X005934Y017396D02*
X005934Y017158D01*
X005934Y017396D02*
X006368Y017396D01*
X006368Y017158D01*
X005934Y017158D01*
X005934Y017394D02*
X006368Y017394D01*
X009934Y021658D02*
X009934Y021896D01*
X010368Y021896D01*
X010368Y021658D01*
X009934Y021658D01*
X009934Y021894D02*
X010368Y021894D01*
X009934Y022406D02*
X009934Y022644D01*
X010368Y022644D01*
X010368Y022406D01*
X009934Y022406D01*
X009934Y022642D02*
X010368Y022642D01*
X011368Y022644D02*
X011368Y022406D01*
X010934Y022406D01*
X010934Y022644D01*
X011368Y022644D01*
X011368Y022642D02*
X010934Y022642D01*
X011368Y021896D02*
X011368Y021658D01*
X010934Y021658D01*
X010934Y021896D01*
X011368Y021896D01*
X011368Y021894D02*
X010934Y021894D01*
X012368Y021896D02*
X012368Y021658D01*
X011934Y021658D01*
X011934Y021896D01*
X012368Y021896D01*
X012368Y021894D02*
X011934Y021894D01*
X012368Y022406D02*
X012368Y022644D01*
X012368Y022406D02*
X011934Y022406D01*
X011934Y022644D01*
X012368Y022644D01*
X012368Y022642D02*
X011934Y022642D01*
X017368Y022644D02*
X017368Y022406D01*
X016934Y022406D01*
X016934Y022644D01*
X017368Y022644D01*
X017368Y022642D02*
X016934Y022642D01*
X017368Y021896D02*
X017368Y021658D01*
X016934Y021658D01*
X016934Y021896D01*
X017368Y021896D01*
X017368Y021894D02*
X016934Y021894D01*
X016934Y021144D02*
X016934Y020906D01*
X016934Y021144D02*
X017368Y021144D01*
X017368Y020906D01*
X016934Y020906D01*
X016934Y021142D02*
X017368Y021142D01*
X018368Y021144D02*
X018368Y020906D01*
X017934Y020906D01*
X017934Y021144D01*
X018368Y021144D01*
X018368Y021142D02*
X017934Y021142D01*
X017934Y021658D02*
X017934Y021896D01*
X018368Y021896D01*
X018368Y021658D01*
X017934Y021658D01*
X017934Y021894D02*
X018368Y021894D01*
X017934Y022406D02*
X017934Y022644D01*
X018368Y022644D01*
X018368Y022406D01*
X017934Y022406D01*
X017934Y022642D02*
X018368Y022642D01*
X019934Y021144D02*
X019934Y020906D01*
X019934Y021144D02*
X020368Y021144D01*
X020368Y020906D01*
X019934Y020906D01*
X019934Y021142D02*
X020368Y021142D01*
X019934Y020396D02*
X019934Y020158D01*
X019934Y020396D02*
X020368Y020396D01*
X020368Y020158D01*
X019934Y020158D01*
X019934Y020394D02*
X020368Y020394D01*
X018368Y020396D02*
X018368Y020158D01*
X017934Y020158D01*
X017934Y020396D01*
X018368Y020396D01*
X018368Y020394D02*
X017934Y020394D01*
X016934Y020396D02*
X016934Y020158D01*
X016934Y020396D02*
X017368Y020396D01*
X017368Y020158D01*
X016934Y020158D01*
X016934Y020394D02*
X017368Y020394D01*
X004934Y011144D02*
X004934Y010906D01*
X004934Y011144D02*
X005368Y011144D01*
X005368Y010906D01*
X004934Y010906D01*
X004934Y011142D02*
X005368Y011142D01*
X004934Y010396D02*
X004934Y010158D01*
X004934Y010396D02*
X005368Y010396D01*
X005368Y010158D01*
X004934Y010158D01*
X004934Y010394D02*
X005368Y010394D01*
X001934Y006394D02*
X001934Y006156D01*
X001934Y006394D02*
X002368Y006394D01*
X002368Y006156D01*
X001934Y006156D01*
X001934Y006392D02*
X002368Y006392D01*
X001934Y005646D02*
X001934Y005408D01*
X001934Y005646D02*
X002368Y005646D01*
X002368Y005408D01*
X001934Y005408D01*
X001934Y005644D02*
X002368Y005644D01*
X003368Y004144D02*
X003368Y003906D01*
X002934Y003906D01*
X002934Y004144D01*
X003368Y004144D01*
X003368Y004142D02*
X002934Y004142D01*
X003368Y003396D02*
X003368Y003158D01*
X002934Y003158D01*
X002934Y003396D01*
X003368Y003396D01*
X003368Y003394D02*
X002934Y003394D01*
D15*
X002151Y020151D03*
X012151Y020151D03*
X023151Y019151D03*
D16*
X023151Y018151D03*
X023151Y017151D03*
X023151Y016151D03*
X023151Y015151D03*
X023151Y014151D03*
X023151Y013151D03*
X024151Y013151D03*
X024151Y014151D03*
X024151Y015151D03*
X024151Y016151D03*
X024151Y017151D03*
X024151Y018151D03*
X024151Y019151D03*
X024151Y012151D03*
X024151Y011151D03*
X024151Y010151D03*
X024151Y009151D03*
X024151Y008151D03*
X024151Y007151D03*
X024151Y006151D03*
X024151Y005151D03*
X023151Y005151D03*
X023151Y006151D03*
X023151Y007151D03*
X023151Y008151D03*
X023151Y009151D03*
X023151Y010151D03*
X023151Y011151D03*
X023151Y012151D03*
X011151Y020151D03*
X010151Y020151D03*
X002151Y011151D03*
M02*
