G75*
G70*
%OFA0B0*%
%FSLAX24Y24*%
%IPPOS*%
%LPD*%
%AMOC8*
5,1,8,0,0,1.08239X$1,22.5*
%
%ADD10C,0.0000*%
D10*
X000151Y000151D02*
X000151Y024151D01*
X025651Y024151D01*
X025643Y000151D01*
X000151Y000151D01*
X001011Y001651D02*
X001013Y001701D01*
X001019Y001751D01*
X001029Y001800D01*
X001042Y001849D01*
X001060Y001896D01*
X001081Y001942D01*
X001105Y001985D01*
X001133Y002027D01*
X001164Y002067D01*
X001198Y002104D01*
X001235Y002138D01*
X001275Y002169D01*
X001317Y002197D01*
X001360Y002221D01*
X001406Y002242D01*
X001453Y002260D01*
X001502Y002273D01*
X001551Y002283D01*
X001601Y002289D01*
X001651Y002291D01*
X001701Y002289D01*
X001751Y002283D01*
X001800Y002273D01*
X001849Y002260D01*
X001896Y002242D01*
X001942Y002221D01*
X001985Y002197D01*
X002027Y002169D01*
X002067Y002138D01*
X002104Y002104D01*
X002138Y002067D01*
X002169Y002027D01*
X002197Y001985D01*
X002221Y001942D01*
X002242Y001896D01*
X002260Y001849D01*
X002273Y001800D01*
X002283Y001751D01*
X002289Y001701D01*
X002291Y001651D01*
X002289Y001601D01*
X002283Y001551D01*
X002273Y001502D01*
X002260Y001453D01*
X002242Y001406D01*
X002221Y001360D01*
X002197Y001317D01*
X002169Y001275D01*
X002138Y001235D01*
X002104Y001198D01*
X002067Y001164D01*
X002027Y001133D01*
X001985Y001105D01*
X001942Y001081D01*
X001896Y001060D01*
X001849Y001042D01*
X001800Y001029D01*
X001751Y001019D01*
X001701Y001013D01*
X001651Y001011D01*
X001601Y001013D01*
X001551Y001019D01*
X001502Y001029D01*
X001453Y001042D01*
X001406Y001060D01*
X001360Y001081D01*
X001317Y001105D01*
X001275Y001133D01*
X001235Y001164D01*
X001198Y001198D01*
X001164Y001235D01*
X001133Y001275D01*
X001105Y001317D01*
X001081Y001360D01*
X001060Y001406D01*
X001042Y001453D01*
X001029Y001502D01*
X001019Y001551D01*
X001013Y001601D01*
X001011Y001651D01*
X001011Y022651D02*
X001013Y022701D01*
X001019Y022751D01*
X001029Y022800D01*
X001042Y022849D01*
X001060Y022896D01*
X001081Y022942D01*
X001105Y022985D01*
X001133Y023027D01*
X001164Y023067D01*
X001198Y023104D01*
X001235Y023138D01*
X001275Y023169D01*
X001317Y023197D01*
X001360Y023221D01*
X001406Y023242D01*
X001453Y023260D01*
X001502Y023273D01*
X001551Y023283D01*
X001601Y023289D01*
X001651Y023291D01*
X001701Y023289D01*
X001751Y023283D01*
X001800Y023273D01*
X001849Y023260D01*
X001896Y023242D01*
X001942Y023221D01*
X001985Y023197D01*
X002027Y023169D01*
X002067Y023138D01*
X002104Y023104D01*
X002138Y023067D01*
X002169Y023027D01*
X002197Y022985D01*
X002221Y022942D01*
X002242Y022896D01*
X002260Y022849D01*
X002273Y022800D01*
X002283Y022751D01*
X002289Y022701D01*
X002291Y022651D01*
X002289Y022601D01*
X002283Y022551D01*
X002273Y022502D01*
X002260Y022453D01*
X002242Y022406D01*
X002221Y022360D01*
X002197Y022317D01*
X002169Y022275D01*
X002138Y022235D01*
X002104Y022198D01*
X002067Y022164D01*
X002027Y022133D01*
X001985Y022105D01*
X001942Y022081D01*
X001896Y022060D01*
X001849Y022042D01*
X001800Y022029D01*
X001751Y022019D01*
X001701Y022013D01*
X001651Y022011D01*
X001601Y022013D01*
X001551Y022019D01*
X001502Y022029D01*
X001453Y022042D01*
X001406Y022060D01*
X001360Y022081D01*
X001317Y022105D01*
X001275Y022133D01*
X001235Y022164D01*
X001198Y022198D01*
X001164Y022235D01*
X001133Y022275D01*
X001105Y022317D01*
X001081Y022360D01*
X001060Y022406D01*
X001042Y022453D01*
X001029Y022502D01*
X001019Y022551D01*
X001013Y022601D01*
X001011Y022651D01*
X023511Y022651D02*
X023513Y022701D01*
X023519Y022751D01*
X023529Y022800D01*
X023542Y022849D01*
X023560Y022896D01*
X023581Y022942D01*
X023605Y022985D01*
X023633Y023027D01*
X023664Y023067D01*
X023698Y023104D01*
X023735Y023138D01*
X023775Y023169D01*
X023817Y023197D01*
X023860Y023221D01*
X023906Y023242D01*
X023953Y023260D01*
X024002Y023273D01*
X024051Y023283D01*
X024101Y023289D01*
X024151Y023291D01*
X024201Y023289D01*
X024251Y023283D01*
X024300Y023273D01*
X024349Y023260D01*
X024396Y023242D01*
X024442Y023221D01*
X024485Y023197D01*
X024527Y023169D01*
X024567Y023138D01*
X024604Y023104D01*
X024638Y023067D01*
X024669Y023027D01*
X024697Y022985D01*
X024721Y022942D01*
X024742Y022896D01*
X024760Y022849D01*
X024773Y022800D01*
X024783Y022751D01*
X024789Y022701D01*
X024791Y022651D01*
X024789Y022601D01*
X024783Y022551D01*
X024773Y022502D01*
X024760Y022453D01*
X024742Y022406D01*
X024721Y022360D01*
X024697Y022317D01*
X024669Y022275D01*
X024638Y022235D01*
X024604Y022198D01*
X024567Y022164D01*
X024527Y022133D01*
X024485Y022105D01*
X024442Y022081D01*
X024396Y022060D01*
X024349Y022042D01*
X024300Y022029D01*
X024251Y022019D01*
X024201Y022013D01*
X024151Y022011D01*
X024101Y022013D01*
X024051Y022019D01*
X024002Y022029D01*
X023953Y022042D01*
X023906Y022060D01*
X023860Y022081D01*
X023817Y022105D01*
X023775Y022133D01*
X023735Y022164D01*
X023698Y022198D01*
X023664Y022235D01*
X023633Y022275D01*
X023605Y022317D01*
X023581Y022360D01*
X023560Y022406D01*
X023542Y022453D01*
X023529Y022502D01*
X023519Y022551D01*
X023513Y022601D01*
X023511Y022651D01*
X023511Y001651D02*
X023513Y001701D01*
X023519Y001751D01*
X023529Y001800D01*
X023542Y001849D01*
X023560Y001896D01*
X023581Y001942D01*
X023605Y001985D01*
X023633Y002027D01*
X023664Y002067D01*
X023698Y002104D01*
X023735Y002138D01*
X023775Y002169D01*
X023817Y002197D01*
X023860Y002221D01*
X023906Y002242D01*
X023953Y002260D01*
X024002Y002273D01*
X024051Y002283D01*
X024101Y002289D01*
X024151Y002291D01*
X024201Y002289D01*
X024251Y002283D01*
X024300Y002273D01*
X024349Y002260D01*
X024396Y002242D01*
X024442Y002221D01*
X024485Y002197D01*
X024527Y002169D01*
X024567Y002138D01*
X024604Y002104D01*
X024638Y002067D01*
X024669Y002027D01*
X024697Y001985D01*
X024721Y001942D01*
X024742Y001896D01*
X024760Y001849D01*
X024773Y001800D01*
X024783Y001751D01*
X024789Y001701D01*
X024791Y001651D01*
X024789Y001601D01*
X024783Y001551D01*
X024773Y001502D01*
X024760Y001453D01*
X024742Y001406D01*
X024721Y001360D01*
X024697Y001317D01*
X024669Y001275D01*
X024638Y001235D01*
X024604Y001198D01*
X024567Y001164D01*
X024527Y001133D01*
X024485Y001105D01*
X024442Y001081D01*
X024396Y001060D01*
X024349Y001042D01*
X024300Y001029D01*
X024251Y001019D01*
X024201Y001013D01*
X024151Y001011D01*
X024101Y001013D01*
X024051Y001019D01*
X024002Y001029D01*
X023953Y001042D01*
X023906Y001060D01*
X023860Y001081D01*
X023817Y001105D01*
X023775Y001133D01*
X023735Y001164D01*
X023698Y001198D01*
X023664Y001235D01*
X023633Y001275D01*
X023605Y001317D01*
X023581Y001360D01*
X023560Y001406D01*
X023542Y001453D01*
X023529Y001502D01*
X023519Y001551D01*
X023513Y001601D01*
X023511Y001651D01*
M02*
